<svg xmlns="http://www.w3.org/2000/svg" xmlns:xlink="http://www.w3.org/1999/xlink" width="500" zoomAndPan="magnify" viewBox="0 0 375 374.999991" height="500" preserveAspectRatio="xMidYMid meet" version="1.0"><defs><g/><clipPath id="59f0e1d340"><path d="M 4 5 L 364 5 L 364 364 L 4 364 Z M 4 5 " clip-rule="nonzero"/></clipPath><clipPath id="100af9b0c6"><path d="M 173.773438 -70.601562 L 382.097656 121.566406 L 137.269531 386.976562 L -71.054688 194.808594 Z M 173.773438 -70.601562 " clip-rule="nonzero"/></clipPath><clipPath id="3eb516faad"><path d="M 173.773438 -70.601562 L 439.179688 174.226562 L 194.351562 439.636719 L -71.054688 194.808594 Z M 173.773438 -70.601562 " clip-rule="nonzero"/></clipPath><clipPath id="172f50d578"><path d="M 80.40625 121.074219 L 282 121.074219 L 282 240.089844 L 80.40625 240.089844 Z M 80.40625 121.074219 " clip-rule="nonzero"/></clipPath><clipPath id="6fadbf8508"><path d="M 25 124 L 299 124 L 299 340 L 25 340 Z M 25 124 " clip-rule="nonzero"/></clipPath><clipPath id="17036ff7db"><path d="M -30.578125 239.742188 L 47.84375 109.183594 L 307.234375 264.984375 L 228.8125 395.546875 Z M -30.578125 239.742188 " clip-rule="nonzero"/></clipPath><clipPath id="5e45ea1dc6"><path d="M -30.578125 239.742188 L 126.78125 -22.242188 L 386.171875 133.5625 L 228.8125 395.546875 Z M -30.578125 239.742188 " clip-rule="nonzero"/></clipPath><clipPath id="82d8a82263"><path d="M 59 23 L 336 23 L 336 235 L 59 235 Z M 59 23 " clip-rule="nonzero"/></clipPath><clipPath id="121eb62bfa"><path d="M 389.34375 116.394531 L 315.429688 249.558594 L 50.867188 102.710938 L 124.78125 -30.453125 Z M 389.34375 116.394531 " clip-rule="nonzero"/></clipPath><clipPath id="172298050a"><path d="M 389.34375 116.394531 L 241.023438 383.601562 L -23.539062 236.753906 L 124.78125 -30.453125 Z M 389.34375 116.394531 " clip-rule="nonzero"/></clipPath></defs><g clip-path="url(#59f0e1d340)"><g clip-path="url(#100af9b0c6)"><g clip-path="url(#3eb516faad)"><path fill="#569d93" d="M 275.917969 334.742188 C 261.984375 343.09375 246.824219 349.222656 231.214844 353.351562 C 218.4375 356.640625 205.390625 358.777344 192.242188 359.535156 C 190.492188 359.683594 188.738281 359.640625 186.984375 359.6875 C 185.234375 359.703125 183.480469 359.769531 181.726562 359.746094 L 176.472656 359.59375 L 173.847656 359.515625 L 171.226562 359.324219 L 165.980469 358.953125 C 164.238281 358.789062 162.5 358.554688 160.757812 358.367188 C 157.265625 358.042969 153.8125 357.414062 150.34375 356.894531 C 149.84375 356.820312 149.320312 356.738281 148.777344 356.652344 C 148.234375 356.542969 147.675781 356.425781 147.089844 356.304688 C 145.921875 356.058594 144.664062 355.796875 143.328125 355.515625 C 140.636719 355.015625 137.691406 354.164062 134.445312 353.3125 C 133.640625 353.089844 132.804688 352.890625 131.96875 352.636719 C 131.140625 352.367188 130.292969 352.097656 129.429688 351.820312 C 127.703125 351.261719 125.914062 350.683594 124.070312 350.089844 C 120.460938 348.679688 116.550781 347.375 112.644531 345.558594 C 96.757812 338.894531 79.4375 327.855469 64.46875 314.164062 C 49.617188 300.347656 37.21875 283.972656 29.296875 268.675781 C 27.171875 264.925781 25.554688 261.132812 23.859375 257.648438 C 23.117188 255.859375 22.398438 254.125 21.703125 252.449219 C 21.359375 251.613281 21.019531 250.789062 20.6875 249.980469 C 20.363281 249.171875 20.101562 248.355469 19.8125 247.570312 C 18.703125 244.40625 17.617188 241.535156 16.898438 238.894531 C 16.511719 237.582031 16.148438 236.351562 15.8125 235.207031 C 15.644531 234.636719 15.484375 234.085938 15.328125 233.554688 C 15.199219 233.019531 15.078125 232.503906 14.960938 232.011719 C 11.757812 219.234375 9.710938 206.183594 9.039062 193.027344 C 8.46875 179.011719 9.621094 164.964844 11.980469 151.121094 C 14.839844 135.226562 19.726562 119.621094 26.929688 105.058594 C 33.957031 90.410156 43.390625 76.933594 54.339844 64.855469 C 65.5 52.96875 78.171875 42.480469 92.207031 34.292969 C 106.140625 25.941406 121.304688 19.8125 136.914062 15.683594 C 149.6875 12.394531 162.738281 10.257812 175.886719 9.5 C 177.632812 9.351562 179.390625 9.394531 181.140625 9.347656 C 182.894531 9.332031 184.644531 9.261719 186.398438 9.289062 L 191.652344 9.441406 L 194.28125 9.515625 L 196.902344 9.710938 L 202.144531 10.082031 C 203.890625 10.246094 205.625 10.480469 207.367188 10.667969 C 210.863281 10.988281 214.3125 11.621094 217.78125 12.140625 C 218.28125 12.214844 218.804688 12.296875 219.351562 12.382812 C 219.890625 12.492188 220.449219 12.609375 221.039062 12.730469 C 222.203125 12.972656 223.460938 13.238281 224.796875 13.515625 C 227.492188 14.019531 230.4375 14.871094 233.679688 15.71875 C 234.488281 15.945312 235.320312 16.140625 236.15625 16.398438 C 236.988281 16.664062 237.835938 16.9375 238.699219 17.214844 C 240.421875 17.769531 242.210938 18.347656 244.054688 18.945312 C 247.664062 20.351562 251.578125 21.660156 255.484375 23.476562 C 271.371094 30.140625 288.6875 41.175781 303.65625 54.871094 C 318.507812 68.683594 330.90625 85.058594 338.828125 100.359375 C 340.953125 104.105469 342.570312 107.898438 344.265625 111.382812 C 345.007812 113.175781 345.726562 114.910156 346.421875 116.582031 C 346.765625 117.421875 347.105469 118.246094 347.441406 119.050781 C 347.761719 119.863281 348.027344 120.679688 348.3125 121.464844 C 349.421875 124.628906 350.511719 127.5 351.226562 130.140625 C 351.613281 131.449219 351.976562 132.683594 352.3125 133.824219 C 352.480469 134.398438 352.644531 134.949219 352.796875 135.480469 C 352.925781 136.015625 353.046875 136.53125 353.164062 137.019531 C 356.367188 149.800781 358.414062 162.851562 359.085938 176.003906 C 359.660156 190.023438 358.507812 204.070312 356.144531 217.914062 C 353.289062 233.804688 348.398438 249.414062 341.195312 263.972656 C 334.167969 278.625 324.734375 292.101562 313.785156 304.179688 C 302.625 316.066406 289.953125 326.554688 275.917969 334.742188 Z M 316.847656 306.84375 L 316.855469 306.828125 C 328.035156 294.492188 337.683594 280.730469 344.886719 265.769531 C 352.257812 250.894531 357.261719 234.9375 360.132812 218.6875 L 361.347656 211.054688 C 361.347656 211.054688 361.613281 208.945312 362.007812 205.78125 C 362.492188 202.621094 362.695312 198.367188 363.050781 194.128906 C 363.144531 189.875 363.390625 185.628906 363.246094 182.441406 C 363.183594 179.253906 363.144531 177.128906 363.144531 177.128906 C 363.144531 177.128906 363.128906 176.597656 363.074219 175.667969 C 363.019531 174.742188 362.945312 173.414062 362.851562 171.824219 C 362.753906 168.632812 362.226562 164.414062 361.796875 160.183594 C 361.515625 158.078125 361.160156 155.984375 360.867188 154.011719 C 360.714844 153.027344 360.566406 152.074219 360.425781 151.171875 C 360.246094 150.277344 360.074219 149.433594 359.914062 148.652344 C 359.277344 145.527344 358.855469 143.441406 358.855469 143.441406 C 358.855469 143.441406 358.785156 142.964844 358.605469 142.261719 C 358.4375 141.558594 358.210938 140.621094 357.988281 139.683594 C 357.535156 137.808594 357.082031 135.929688 357.082031 135.929688 C 356.964844 135.429688 356.839844 134.902344 356.710938 134.351562 C 356.554688 133.808594 356.390625 133.246094 356.222656 132.660156 C 355.878906 131.484375 355.507812 130.226562 355.117188 128.882812 C 354.386719 126.179688 353.28125 123.242188 352.148438 120 C 351.859375 119.195312 351.585938 118.359375 351.257812 117.53125 C 350.917969 116.703125 350.574219 115.859375 350.222656 115.003906 C 349.511719 113.289062 348.777344 111.511719 348.019531 109.675781 C 346.289062 106.105469 344.632812 102.226562 342.464844 98.386719 C 334.363281 82.722656 321.679688 65.945312 306.476562 51.8125 C 291.164062 37.800781 273.421875 26.507812 257.15625 19.695312 C 253.15625 17.839844 249.148438 16.503906 245.453125 15.066406 C 243.566406 14.457031 241.734375 13.867188 239.96875 13.300781 C 239.085938 13.019531 238.214844 12.742188 237.363281 12.46875 C 236.511719 12.207031 235.65625 12.003906 234.828125 11.777344 C 231.511719 10.910156 228.492188 10.046875 225.738281 9.539062 C 224.371094 9.253906 223.082031 8.988281 221.886719 8.742188 C 221.289062 8.617188 220.710938 8.5 220.160156 8.390625 C 219.601562 8.304688 219.066406 8.222656 218.554688 8.144531 C 218.554688 8.144531 216.648438 7.847656 214.742188 7.546875 C 213.789062 7.398438 212.835938 7.25 212.121094 7.140625 C 211.410156 7.015625 210.925781 6.984375 210.925781 6.984375 C 210.925781 6.984375 208.816406 6.730469 205.648438 6.347656 C 204.859375 6.253906 204 6.148438 203.09375 6.039062 C 202.183594 5.972656 201.222656 5.902344 200.230469 5.832031 C 198.242188 5.695312 196.121094 5.511719 194 5.402344 C 189.75 5.3125 185.503906 5.128906 182.316406 5.285156 C 180.722656 5.324219 179.394531 5.355469 178.464844 5.375 C 177.535156 5.394531 177.003906 5.421875 177.003906 5.421875 C 177.003906 5.421875 174.882812 5.550781 171.703125 5.75 C 168.511719 5.859375 164.296875 6.449219 160.066406 6.882812 C 155.871094 7.582031 151.644531 8.125 148.539062 8.863281 C 145.414062 9.511719 143.328125 9.945312 143.328125 9.945312 L 135.820312 11.769531 C 119.859375 15.941406 104.351562 22.214844 90.121094 30.761719 C 75.789062 39.148438 62.847656 49.871094 51.453125 62.007812 L 51.441406 62.015625 L 51.359375 62.101562 L 51.277344 62.191406 L 51.269531 62.207031 C 40.09375 74.542969 30.445312 88.300781 23.242188 103.265625 C 15.867188 118.136719 10.863281 134.097656 7.992188 150.34375 L 6.777344 157.976562 C 6.777344 157.976562 6.511719 160.089844 6.117188 163.253906 C 5.632812 166.414062 5.429688 170.667969 5.074219 174.90625 C 4.980469 179.15625 4.734375 183.40625 4.882812 186.59375 C 4.941406 189.78125 4.980469 191.90625 4.980469 191.90625 C 4.980469 191.90625 4.996094 192.4375 5.054688 193.363281 C 5.105469 194.292969 5.183594 195.621094 5.273438 197.210938 C 5.375 200.402344 5.898438 204.621094 6.328125 208.847656 C 6.609375 210.953125 6.964844 213.050781 7.257812 215.023438 C 7.410156 216.007812 7.558594 216.957031 7.699219 217.863281 C 7.878906 218.757812 8.054688 219.601562 8.210938 220.382812 C 8.847656 223.507812 9.269531 225.589844 9.269531 225.589844 C 9.269531 225.589844 9.339844 226.070312 9.519531 226.769531 C 9.691406 227.472656 9.917969 228.410156 10.140625 229.347656 C 10.589844 231.226562 11.042969 233.101562 11.042969 233.101562 C 11.160156 233.605469 11.285156 234.132812 11.414062 234.683594 C 11.570312 235.226562 11.734375 235.789062 11.90625 236.375 C 12.246094 237.550781 12.617188 238.808594 13.007812 240.152344 C 13.738281 242.855469 14.84375 245.792969 15.976562 249.03125 C 16.269531 249.839844 16.539062 250.675781 16.867188 251.503906 C 17.207031 252.332031 17.554688 253.175781 17.90625 254.03125 C 18.613281 255.746094 19.347656 257.523438 20.105469 259.359375 C 21.835938 262.925781 23.492188 266.808594 25.664062 270.648438 C 33.765625 286.3125 46.449219 303.085938 61.648438 317.222656 C 76.960938 331.234375 94.703125 342.527344 110.972656 349.339844 C 114.972656 351.191406 118.976562 352.53125 122.671875 353.96875 C 124.558594 354.578125 126.390625 355.164062 128.15625 355.734375 C 129.042969 356.015625 129.910156 356.292969 130.761719 356.566406 C 131.613281 356.828125 132.46875 357.027344 133.296875 357.253906 C 136.617188 358.121094 139.632812 358.988281 142.386719 359.496094 C 143.757812 359.78125 145.042969 360.042969 146.238281 360.292969 C 146.835938 360.414062 147.414062 360.53125 147.964844 360.644531 C 148.527344 360.730469 149.058594 360.8125 149.570312 360.890625 C 149.570312 360.890625 151.476562 361.1875 153.382812 361.484375 C 154.339844 361.632812 155.289062 361.785156 156.003906 361.894531 C 156.71875 362.019531 157.199219 362.046875 157.199219 362.046875 C 157.199219 362.046875 159.308594 362.304688 162.476562 362.683594 C 163.269531 362.78125 164.125 362.886719 165.03125 362.992188 C 165.941406 363.0625 166.902344 363.132812 167.898438 363.203125 C 169.886719 363.339844 172.003906 363.523438 174.125 363.632812 C 178.375 363.722656 182.621094 363.90625 185.808594 363.746094 C 187.402344 363.710938 188.730469 363.679688 189.660156 363.65625 C 190.589844 363.640625 191.121094 363.613281 191.121094 363.613281 C 191.121094 363.613281 193.242188 363.480469 196.425781 363.285156 C 199.613281 363.175781 203.828125 362.585938 208.058594 362.148438 C 212.253906 361.453125 216.480469 360.910156 219.585938 360.171875 C 222.714844 359.523438 224.796875 359.089844 224.796875 359.089844 L 232.304688 357.261719 C 248.269531 353.09375 263.773438 346.820312 278.003906 338.273438 C 292.339844 329.886719 305.277344 319.160156 316.671875 307.023438 L 316.683594 307.019531 L 316.765625 306.929688 L 316.847656 306.84375 " fill-opacity="1" fill-rule="nonzero"/></g></g></g><g clip-path="url(#172f50d578)"><path fill="#00c9b7" d="M 203.355469 123.136719 C 199.601562 121.699219 195.40625 123.5625 193.964844 127.304688 L 154.542969 229.796875 C 153.105469 233.523438 154.988281 237.730469 158.722656 239.148438 C 159.59375 239.488281 160.464844 239.644531 161.335938 239.644531 C 164.253906 239.644531 167.007812 237.871094 168.113281 234.980469 L 207.535156 132.503906 C 208.972656 128.761719 207.105469 124.574219 203.355469 123.136719 Z M 279.191406 176.171875 L 230.082031 124.234375 C 227.324219 121.324219 222.738281 121.199219 219.820312 123.953125 C 216.90625 126.703125 216.761719 131.28125 219.519531 134.191406 L 263.9375 181.160156 L 219.519531 228.09375 C 216.761719 231.003906 216.90625 235.582031 219.820312 238.332031 C 221.226562 239.664062 223.003906 240.320312 224.800781 240.320312 C 226.71875 240.320312 228.65625 239.558594 230.097656 238.050781 L 279.210938 186.128906 C 281.84375 183.34375 281.84375 178.976562 279.210938 176.171875 Z M 142.257812 123.953125 C 139.339844 121.199219 134.753906 121.324219 131.996094 124.253906 L 82.886719 176.15625 C 80.234375 178.941406 80.234375 183.308594 82.886719 186.109375 L 131.996094 238.050781 C 133.421875 239.558594 135.339844 240.320312 137.277344 240.320312 C 139.058594 240.320312 140.851562 239.664062 142.257812 238.351562 C 145.175781 235.601562 145.316406 231.003906 142.558594 228.09375 L 98.140625 181.125 L 142.558594 134.191406 C 145.316406 131.28125 145.175781 126.703125 142.257812 123.953125 " fill-opacity="1" fill-rule="nonzero"/></g><g clip-path="url(#6fadbf8508)"><g clip-path="url(#17036ff7db)"><g clip-path="url(#5e45ea1dc6)"><path fill="#00c9b7" d="M 117.71875 286.671875 C 167.496094 316.570312 230.941406 304.699219 267.105469 261.320312 L 298.214844 280.003906 C 251.5625 340.347656 165.960938 357.699219 99.160156 317.574219 C 32.359375 277.449219 7.464844 193.730469 38.820312 124.199219 L 69.929688 142.882812 C 48.621094 195.1875 67.941406 256.773438 117.71875 286.671875 " fill-opacity="1" fill-rule="nonzero"/></g></g></g><g fill="#00c9b7" fill-opacity="1"><g transform="translate(175.88632, 372.466989)"><g><path d="M 2.34375 -0.203125 L 0.390625 -22.75 L 10.375 -23.609375 C 11.40625 -23.703125 12.378906 -23.570312 13.296875 -23.21875 C 14.210938 -22.863281 15.019531 -22.351562 15.71875 -21.6875 C 16.414062 -21.03125 16.984375 -20.269531 17.421875 -19.40625 C 17.859375 -18.539062 18.113281 -17.648438 18.1875 -16.734375 C 18.320312 -15.273438 18.078125 -13.914062 17.453125 -12.65625 C 16.828125 -11.40625 15.90625 -10.460938 14.6875 -9.828125 L 20.578125 -1.78125 L 15.65625 -1.359375 L 10.390625 -8.515625 L 6.0625 -8.140625 L 6.71875 -0.578125 Z M 5.734375 -11.96875 L 11.234375 -12.453125 C 11.640625 -12.484375 12.007812 -12.609375 12.34375 -12.828125 C 12.675781 -13.054688 12.953125 -13.34375 13.171875 -13.6875 C 13.390625 -14.039062 13.554688 -14.445312 13.671875 -14.90625 C 13.785156 -15.375 13.816406 -15.859375 13.765625 -16.359375 C 13.722656 -16.890625 13.597656 -17.367188 13.390625 -17.796875 C 13.179688 -18.234375 12.921875 -18.601562 12.609375 -18.90625 C 12.296875 -19.207031 11.945312 -19.429688 11.5625 -19.578125 C 11.175781 -19.722656 10.789062 -19.78125 10.40625 -19.75 L 5.09375 -19.28125 Z M 5.734375 -11.96875 "/></g></g></g><g fill="#00c9b7" fill-opacity="1"><g transform="translate(211.348066, 368.119577)"><g><path d="M 2.640625 -24.140625 L 6.390625 -25.140625 L 20.5625 -5.515625 L 16.1875 -4.34375 L 12.6875 -9.25 L 5.046875 -7.203125 L 4.53125 -1.21875 L 0.15625 -0.046875 Z M 11.125 -12.03125 L 5.8125 -19.796875 L 4.96875 -10.375 Z M 11.125 -12.03125 "/></g></g></g><g fill="#00c9b7" fill-opacity="1"><g transform="translate(245.947895, 357.671425)"><g><path d="M 18.703125 -9.140625 L 12.125 -22.609375 L 11.78125 -10.015625 L 9.625 -8.96875 L -0.515625 -16.4375 L 6.0625 -2.96875 L 2.125 -1.03125 L -7.796875 -21.359375 L -3.5625 -23.4375 L 8.09375 -14.8125 L 8.53125 -29.34375 L 12.734375 -31.390625 L 22.65625 -11.0625 Z M 18.703125 -9.140625 "/></g></g></g><g fill="#00c9b7" fill-opacity="1"><g transform="translate(283.146589, 337.612302)"><g><path d="M 12.921875 -17.078125 C 13.492188 -16.316406 13.84375 -15.53125 13.96875 -14.71875 C 14.101562 -13.90625 14.046875 -13.101562 13.796875 -12.3125 C 13.554688 -11.519531 13.164062 -10.753906 12.625 -10.015625 C 12.082031 -9.285156 11.410156 -8.617188 10.609375 -8.015625 L 1.875 -1.421875 L -11.765625 -19.46875 L -2.09375 -26.765625 C -1.46875 -27.242188 -0.796875 -27.539062 -0.078125 -27.65625 C 0.628906 -27.769531 1.320312 -27.742188 2 -27.578125 C 2.6875 -27.410156 3.335938 -27.125 3.953125 -26.71875 C 4.566406 -26.320312 5.085938 -25.847656 5.515625 -25.296875 C 6.171875 -24.410156 6.570312 -23.414062 6.71875 -22.3125 C 6.863281 -21.207031 6.648438 -20.148438 6.078125 -19.140625 C 7.335938 -19.609375 8.566406 -19.675781 9.765625 -19.34375 C 10.972656 -19.019531 12.023438 -18.265625 12.921875 -17.078125 Z M 8.875 -15.046875 C 8.632812 -15.367188 8.34375 -15.640625 8 -15.859375 C 7.664062 -16.078125 7.320312 -16.226562 6.96875 -16.3125 C 6.613281 -16.394531 6.265625 -16.398438 5.921875 -16.328125 C 5.578125 -16.265625 5.25 -16.113281 4.9375 -15.875 L -0.453125 -11.796875 L 3.140625 -7.046875 L 8.359375 -11 C 8.671875 -11.238281 8.925781 -11.519531 9.125 -11.84375 C 9.320312 -12.175781 9.441406 -12.523438 9.484375 -12.890625 C 9.523438 -13.253906 9.492188 -13.625 9.390625 -14 C 9.285156 -14.382812 9.113281 -14.734375 8.875 -15.046875 Z M -5.984375 -19.125 L -2.546875 -14.578125 L 2.140625 -18.125 C 2.722656 -18.570312 3.066406 -19.148438 3.171875 -19.859375 C 3.285156 -20.578125 3.070312 -21.296875 2.53125 -22.015625 C 2.007812 -22.710938 1.40625 -23.117188 0.71875 -23.234375 C 0.03125 -23.359375 -0.59375 -23.207031 -1.15625 -22.78125 Z M -5.984375 -19.125 "/></g></g></g><g fill="#00c9b7" fill-opacity="1"><g transform="translate(311.1701, 314.758135)"><g><path d="M -1.390625 -22.984375 C -1.585938 -22.984375 -1.914062 -22.921875 -2.375 -22.796875 C -2.832031 -22.679688 -3.34375 -22.5 -3.90625 -22.25 C -4.46875 -22.007812 -5.035156 -21.707031 -5.609375 -21.34375 C -6.179688 -20.988281 -6.703125 -20.5625 -7.171875 -20.0625 C -7.992188 -19.175781 -8.445312 -18.363281 -8.53125 -17.625 C -8.613281 -16.882812 -8.359375 -16.238281 -7.765625 -15.6875 C -7.421875 -15.375 -7.0625 -15.191406 -6.6875 -15.140625 C -6.3125 -15.085938 -5.894531 -15.132812 -5.4375 -15.28125 C -4.976562 -15.4375 -4.453125 -15.6875 -3.859375 -16.03125 C -3.273438 -16.375 -2.625 -16.785156 -1.90625 -17.265625 C -0.925781 -17.859375 -0.00390625 -18.367188 0.859375 -18.796875 C 1.734375 -19.222656 2.566406 -19.492188 3.359375 -19.609375 C 4.160156 -19.722656 4.9375 -19.660156 5.6875 -19.421875 C 6.4375 -19.179688 7.195312 -18.707031 7.96875 -18 C 8.84375 -17.164062 9.4375 -16.289062 9.75 -15.375 C 10.070312 -14.457031 10.160156 -13.53125 10.015625 -12.59375 C 9.878906 -11.664062 9.554688 -10.75 9.046875 -9.84375 C 8.535156 -8.9375 7.90625 -8.082031 7.15625 -7.28125 C 6 -6.039062 4.664062 -4.988281 3.15625 -4.125 C 1.644531 -3.257812 0.101562 -2.664062 -1.46875 -2.34375 L -2.921875 -6.34375 C -2.648438 -6.351562 -2.226562 -6.4375 -1.65625 -6.59375 C -1.09375 -6.75 -0.46875 -6.96875 0.21875 -7.25 C 0.914062 -7.53125 1.617188 -7.90625 2.328125 -8.375 C 3.046875 -8.84375 3.707031 -9.394531 4.3125 -10.03125 C 5.957031 -11.789062 6.210938 -13.203125 5.078125 -14.265625 C 4.722656 -14.585938 4.328125 -14.765625 3.890625 -14.796875 C 3.453125 -14.835938 2.960938 -14.757812 2.421875 -14.5625 C 1.890625 -14.363281 1.300781 -14.070312 0.65625 -13.6875 C 0.0078125 -13.3125 -0.707031 -12.882812 -1.5 -12.40625 C -2.457031 -11.820312 -3.335938 -11.351562 -4.140625 -11 C -4.941406 -10.65625 -5.695312 -10.453125 -6.40625 -10.390625 C -7.113281 -10.328125 -7.785156 -10.410156 -8.421875 -10.640625 C -9.066406 -10.878906 -9.707031 -11.300781 -10.34375 -11.90625 C -11.1875 -12.6875 -11.785156 -13.535156 -12.140625 -14.453125 C -12.503906 -15.367188 -12.644531 -16.300781 -12.5625 -17.25 C -12.488281 -18.207031 -12.222656 -19.15625 -11.765625 -20.09375 C -11.316406 -21.039062 -10.695312 -21.9375 -9.90625 -22.78125 C -8.820312 -23.9375 -7.640625 -24.832031 -6.359375 -25.46875 C -5.078125 -26.113281 -3.847656 -26.566406 -2.671875 -26.828125 Z M -1.390625 -22.984375 "/></g></g></g><g fill="#00c9b7" fill-opacity="1"><g transform="translate(333.12795, 289.271307)"><g/></g></g><g fill="#00c9b7" fill-opacity="1"><g transform="translate(344.923042, 271.342611)"><g/></g></g><g fill="#569d93" fill-opacity="1"><g transform="translate(355.194073, 252.01733)"><g><path d="M 0.84375 -2.203125 L -20.28125 -10.296875 L -17.34375 -17.96875 C -16.675781 -19.695312 -15.816406 -21.109375 -14.765625 -22.203125 C -13.710938 -23.296875 -12.539062 -24.09375 -11.25 -24.59375 C -9.96875 -25.101562 -8.601562 -25.328125 -7.15625 -25.265625 C -5.707031 -25.210938 -4.257812 -24.910156 -2.8125 -24.359375 C -1.207031 -23.742188 0.144531 -22.941406 1.25 -21.953125 C 2.363281 -20.960938 3.207031 -19.835938 3.78125 -18.578125 C 4.363281 -17.316406 4.660156 -15.945312 4.671875 -14.46875 C 4.691406 -12.988281 4.394531 -11.457031 3.78125 -9.875 Z M -4.390625 -20.234375 C -5.398438 -20.617188 -6.382812 -20.832031 -7.34375 -20.875 C -8.3125 -20.925781 -9.203125 -20.800781 -10.015625 -20.5 C -10.835938 -20.195312 -11.566406 -19.71875 -12.203125 -19.0625 C -12.847656 -18.40625 -13.363281 -17.582031 -13.75 -16.59375 L -15.109375 -13.015625 L -1.1875 -7.671875 L 0.171875 -11.25 C 0.566406 -12.257812 0.734375 -13.226562 0.671875 -14.15625 C 0.617188 -15.082031 0.382812 -15.925781 -0.03125 -16.6875 C -0.457031 -17.457031 -1.039062 -18.144531 -1.78125 -18.75 C -2.53125 -19.351562 -3.398438 -19.847656 -4.390625 -20.234375 Z M -4.390625 -20.234375 "/></g></g></g><g fill="#569d93" fill-opacity="1"><g transform="translate(367.220891, 216.683328)"><g><path d="M -0.328125 -18.484375 L 3.453125 -17.75 L 0.453125 -2.3125 L -21.75 -6.625 L -18.8125 -21.765625 L -15.046875 -21.03125 L -17.15625 -10.203125 L -11.796875 -9.171875 L -9.96875 -18.53125 L -6.46875 -17.84375 L -8.296875 -8.484375 L -2.5 -7.359375 Z M -0.328125 -18.484375 "/></g></g></g><g fill="#569d93" fill-opacity="1"><g transform="translate(372.522652, 183.461743)"><g><path d="M -22.53125 -5.171875 L -5.28125 -10.9375 L -22.265625 -17.34375 L -22.171875 -21.96875 L 0.265625 -12.65625 L 0.1875 -8.953125 L -22.625 -0.546875 Z M -22.53125 -5.171875 "/></g></g></g><g clip-path="url(#82d8a82263)"><g clip-path="url(#121eb62bfa)"><g clip-path="url(#172298050a)"><path fill="#569d93" d="M 239.527344 74.558594 C 188.757812 46.378906 125.757812 60.410156 91.09375 105 L 59.367188 87.390625 C 103.929688 25.488281 188.890625 5.222656 257.023438 43.042969 C 325.152344 80.859375 352.894531 163.679688 323.933594 234.242188 L 292.203125 216.628906 C 311.710938 163.628906 290.296875 102.738281 239.527344 74.558594 " fill-opacity="1" fill-rule="nonzero"/></g></g></g></svg>